<svg xmlns="http://www.w3.org/2000/svg" width="24" height="24" viewBox="0 0 24 24">
  <g id="Group_9271" data-name="Group 9271" transform="translate(-39 -472.428)">
    <rect id="Rectangle_17471" data-name="Rectangle 17471" width="24" height="24" transform="translate(39 472.428)" fill="none"/>
    <g id="VUGCSw" transform="translate(41.758 476)">
      <g id="Group_9266" data-name="Group 9266">
        <path id="Path_18065" data-name="Path 18065" d="M3910.2,2265.952l-3.833,3.011c-.644.506-1.28,1.02-1.931,1.516a1.464,1.464,0,0,1-1.955.032c-1.405-1.085-2.8-2.19-4.19-3.288-.094-.074-.177-.163-.287-.264-.139.078-.293.18-.458.255a1.074,1.074,0,0,0-.568,1.549c.67,1.267,1.391,2.511,2.162,3.719a1.082,1.082,0,0,0,1.588.285c.2-.115.4-.235.6-.342a1.557,1.557,0,0,1,1.859.17,6.487,6.487,0,0,1,2.117,3.5,1.045,1.045,0,0,1-.548,1.213,5.526,5.526,0,0,1-6.375-.347,8.891,8.891,0,0,1-2.048-2.111,53.05,53.05,0,0,1-2.856-4.92,6.762,6.762,0,0,1-.542-5.3,5.325,5.325,0,0,1,2.722-3.188.931.931,0,0,1,1.088.067,9.147,9.147,0,0,1,1.108,1.224,2.855,2.855,0,0,1,.463.85c.2.609.584.748,1.206.741,3.32-.035,6.639-.017,9.959-.016a5.008,5.008,0,0,1,.555.016,1.152,1.152,0,0,1,1.065,1.182q.005,3.966,0,7.931a1.145,1.145,0,0,1-1.148,1.2c-1.358.019-2.717,0-4.076.009-.287,0-.506-.1-.511-.4-.005-.323.218-.451.523-.451,1.266,0,2.532,0,3.8,0,.342,0,.563-.073.562-.484-.009-2.381-.005-4.762-.007-7.143A1.522,1.522,0,0,0,3910.2,2265.952Zm-16.7.505a8.014,8.014,0,0,0,1.11,3.816q1.011,1.767,2.044,3.521a7.723,7.723,0,0,0,2.358,2.571,4.7,4.7,0,0,0,5.067.346c.4-.205.475-.473.3-.817a17.163,17.163,0,0,0-1.075-1.933c-.714-1.043-1.023-1.084-2.118-.459a2.061,2.061,0,0,1-2.946-.76c-.66-1.114-1.313-2.233-1.946-3.362a2.036,2.036,0,0,1,.791-2.9,4.239,4.239,0,0,1,.443-.249.815.815,0,0,0,.5-1.06,6.718,6.718,0,0,0-1.515-2.772.447.447,0,0,0-.647-.089A4.677,4.677,0,0,0,3893.5,2266.457Zm16.251-1.261h-10.759l-.283,1.252c1.4,1.1,2.824,2.218,4.239,3.338a.714.714,0,0,0,1-.017c1.147-.913,2.3-1.814,3.456-2.721Z" transform="translate(-3892.626 -2261.301)"/>
      </g>
    </g>
  </g>
</svg>
