<svg xmlns="http://www.w3.org/2000/svg" width="24" height="24" viewBox="0 0 24 24">
  <g id="Group_9272" data-name="Group 9272" transform="translate(-39 -352.793)">
    <rect id="Rectangle_17472" data-name="Rectangle 17472" width="24" height="24" transform="translate(39 352.793)" fill="none"/>
    <g id="X2s7IA.tif" transform="translate(41.461 355.451)">
      <g id="Group_9270" data-name="Group 9270" transform="translate(0 0)">
        <path id="Path_18072" data-name="Path 18072" d="M3880.718,1169.012h-1.167a1.284,1.284,0,0,1-1.263-1.241c-.008-.793-.007-1.586,0-2.379a1.282,1.282,0,0,1,1.272-1.252c.378,0,.757,0,1.16,0,0-.388,0-.76,0-1.132a2.027,2.027,0,0,1,.678-1.556,1.973,1.973,0,0,1,1.391-.559q4.829,0,9.657,0a2.084,2.084,0,0,1,2.069,2.072c0,.38,0,.761,0,1.157.052.005.1.014.147.015.336,0,.672,0,1.008,0a1.281,1.281,0,0,1,1.278,1.263q0,1.18,0,2.36a1.28,1.28,0,0,1-1.252,1.25c-.385,0-.771,0-1.181,0,0,.417,0,.82,0,1.224a.4.4,0,0,1-.355.406.4.4,0,0,1-.422-.256.785.785,0,0,1-.028-.243q0-1.237,0-2.473,0-2.34,0-4.681a1.169,1.169,0,0,0-1.288-1.285h-9.638a1.145,1.145,0,0,0-1.241,1.229c0,1.884,0,3.768,0,5.652,0,.869,0,1.738-.006,2.607,0,.076,0,.152,0,.257h3.823c.07,0,.139,0,.209,0a.409.409,0,0,1,.426.413.4.4,0,0,1-.423.394c-.615,0-1.229,0-1.844,0h-1.977c-.062,0-.124.005-.2.009,0,.07-.011.131-.011.193,0,.863,0,1.726,0,2.589a1.156,1.156,0,0,0,1.273,1.274c.925,0,1.851,0,2.775,0a.4.4,0,0,1,.411.548.383.383,0,0,1-.382.26l-.8.008s-.01.007-.039.029c0,.385,0,.789,0,1.193a1.277,1.277,0,0,1-1.273,1.206,1.291,1.291,0,0,1-1.159-1.206c-.006-.418,0-.837,0-1.266a2.195,2.195,0,0,1-1-.566,2.049,2.049,0,0,1-.629-1.5q0-2.893,0-5.786Zm13.806-4.054v3.246h1.127c.378,0,.487-.108.487-.486q0-1.131,0-2.263a1.821,1.821,0,0,0-.011-.189.3.3,0,0,0-.3-.3C3895.394,1164.951,3894.965,1164.958,3894.524,1164.958Zm-13.821,3.231v-3.236c-.432,0-.849-.01-1.265,0a.3.3,0,0,0-.329.339c-.005.856,0,1.712,0,2.568a.286.286,0,0,0,.282.321C3879.826,1168.2,3880.261,1168.189,3880.7,1168.189Zm2.449,8.953c0,.167,0,.323,0,.48,0,.284,0,.57.02.853.018.2.15.281.381.284s.382-.077.391-.27c.02-.445.006-.892.006-1.346Z" transform="translate(-3878.282 -1160.892)"/>
        <path id="Path_18073" data-name="Path 18073" d="M4052.594,1378.134h-3.977a1.277,1.277,0,0,1-1.307-1.312c0-1.82.015-3.641-.007-5.461a1.379,1.379,0,0,1,1.36-1.356c2.632.024,5.264.01,7.9.009a1.287,1.287,0,0,1,1.316,1.306c0,1.839-.008,3.679,0,5.518a1.348,1.348,0,0,1-1.309,1.3C4055.245,1378.115,4053.919,1378.134,4052.594,1378.134Zm-4.464-4.045v.57c0,.735,0,1.471,0,2.207,0,.363.1.456.466.459h7.989c.371,0,.47-.1.47-.476q0-1.284,0-2.568c0-.061-.007-.122-.011-.192Zm8.927-2.456c0-.109,0-.209,0-.309,0-.409-.094-.5-.507-.5q-3.938,0-7.877,0a.662.662,0,0,0-.3.031.452.452,0,0,0-.224.244,2.56,2.56,0,0,0-.01.532Zm-8.917,1.616h8.905v-.783h-8.914c0,.236,0,.458,0,.679C4048.13,1373.175,4048.135,1373.206,4048.139,1373.248Z" transform="translate(-4038.801 -1359.458)"/>
        <path id="Path_18074" data-name="Path 18074" d="M4017.391,1201.905c-.519,0-1.038,0-1.558,0a.4.4,0,0,1-.452-.4.4.4,0,0,1,.448-.408q1.577,0,3.154,0a.4.4,0,0,1,.452.4.4.4,0,0,1-.447.4C4018.455,1201.907,4017.923,1201.905,4017.391,1201.905Z" transform="translate(-4008.477 -1199.068)"/>
        <path id="Path_18075" data-name="Path 18075" d="M3959.781,1402.466c.139,0,.279-.006.417,0a.4.4,0,0,1,.008.8q-.436.017-.873,0a.4.4,0,0,1,.011-.8c.145-.007.291,0,.436,0Z" transform="translate(-3954.89 -1390.279)"/>
        <path id="Path_18076" data-name="Path 18076" d="M4076.4,1478.913a.609.609,0,1,1-.049,1.217.609.609,0,0,1,.049-1.217Z" transform="translate(-4065.828 -1462.873)"/>
      </g>
    </g>
  </g>
</svg>
