<svg xmlns="http://www.w3.org/2000/svg" width="24" height="24" viewBox="0 0 24 24">
  <g id="Group_9277" data-name="Group 9277" transform="translate(-39 -230.444)">
    <rect id="Rectangle_17477" data-name="Rectangle 17477" width="24" height="24" transform="translate(39 230.444)" fill="none"/>
    <g id="YdleGQ.tif" transform="translate(42.096 233)">
      <g id="Group_9269" data-name="Group 9269" transform="translate(0 0)">
        <path id="Path_18071" data-name="Path 18071" d="M3916.824,99.762v11.189a1.234,1.234,0,0,1-1.359.837c-1.425-.027-2.851-.008-4.276-.008a1.064,1.064,0,0,1-1.174-1.178q0-3.212,0-6.423v-.247h-4.19v.279q0,3.223,0,6.445a1.054,1.054,0,0,1-1.118,1.124q-2.28,0-4.56,0a1.056,1.056,0,0,1-1.129-1.135q0-5.3,0-10.6a1.164,1.164,0,0,1,.462-.962q3.2-2.591,6.381-5.194a3.827,3.827,0,0,1,1.757-.991h.611a3.062,3.062,0,0,1,1.281.6q3.349,2.739,6.71,5.461A1.635,1.635,0,0,1,3916.824,99.762Zm-5.762,10.952h4.7c0-.045.009-.073.009-.1q0-5.255-.005-10.51a.366.366,0,0,0-.13-.245q-3.414-2.789-6.836-5.568a1.309,1.309,0,0,0-1.771,0q-3.4,2.768-6.808,5.535a.4.4,0,0,0-.162.347q.006,5.157,0,10.313v.232h4.712v-.267q0-3.223,0-6.446a1.046,1.046,0,0,1,1.138-1.142h3.971a1.056,1.056,0,0,1,1.175,1.172q0,3.2,0,6.4Z" transform="translate(-3899.016 -92.9)" fill="#f99026"/>
      </g>
    </g>
  </g>
</svg>
