<svg xmlns="http://www.w3.org/2000/svg" width="24" height="24" viewBox="0 0 24 24">
  <g id="Group_9276" data-name="Group 9276" transform="translate(-39 -588.112)">
    <rect id="Rectangle_17476" data-name="Rectangle 17476" width="24" height="24" transform="translate(39 588.112)" fill="none"/>
    <g id="HpwsBl.tif" transform="translate(43.899 593)">
      <g id="Group_9268" data-name="Group 9268" transform="translate(0 0)">
        <path id="Path_18069" data-name="Path 18069" d="M3933.124,3361.113a.554.554,0,0,1,.587-.337c1.99.007,3.98,0,5.97,0,.347,0,.553.166.554.443s-.206.445-.551.445h-5.66v12.443h5.669a.82.82,0,0,1,.232.025.413.413,0,0,1,.306.374.425.425,0,0,1-.21.423c-.038.024-.079.044-.118.066h-6.445a.617.617,0,0,1-.333-.333Z" transform="translate(-3933.124 -3360.776)"/>
        <path id="Path_18070" data-name="Path 18070" d="M4001.6,3431.238c-.054-.058-.085-.095-.12-.129q-1.062-1.078-2.126-2.155a.508.508,0,0,1-.182-.4.426.426,0,0,1,.247-.374.408.408,0,0,1,.445.036,1.117,1.117,0,0,1,.144.131l2.924,2.966a.467.467,0,0,1,.008.748q-1.485,1.509-2.972,3.016a.461.461,0,0,1-.489.149.446.446,0,0,1-.223-.689,1.19,1.19,0,0,1,.112-.124l2.1-2.136c.035-.036.069-.073.131-.139h-8.99c-.06,0-.121,0-.18,0a.443.443,0,0,1-.421-.434.449.449,0,0,1,.4-.455,1.584,1.584,0,0,1,.18,0h9.006Z" transform="translate(-3988.919 -3424.567)"/>
      </g>
    </g>
  </g>
</svg>
