<svg xmlns="http://www.w3.org/2000/svg" width="24" height="24" viewBox="0 0 24 24">
  <g id="Group_9274" data-name="Group 9274" transform="translate(-39 -413.026)">
    <rect id="Rectangle_17474" data-name="Rectangle 17474" width="24" height="24" transform="translate(39 413.026)" fill="none"/>
    <g id="_3AAULO" data-name="3AAULO" transform="translate(-4372.482 -1832.892)">
      <g id="Group_9457" data-name="Group 9457" transform="translate(4413.401 2248.842)">
        <path id="Path_18077" data-name="Path 18077" d="M4422.037,2260.467h-2.271c-1.6,0-3.191-.008-4.787.01a1.562,1.562,0,0,1-1.579-1.572q0-2.221,0-4.442c0-1.348,0-2.7,0-4.046a1.532,1.532,0,0,1,.762-1.366,1.4,1.4,0,0,1,.751-.207c.95,0,1.9,0,2.852,0,.155,0,.309,0,.463-.005h6.831q2.013,0,4.026,0a1.5,1.5,0,0,1,1.389.812,1.838,1.838,0,0,1,.192.934q0,3.543,0,7.087c0,.4.008.808,0,1.212a1.547,1.547,0,0,1-.867,1.432,1.39,1.39,0,0,1-.656.153q-3.554,0-7.106,0Zm0-.8h3.652c1.141,0,2.283,0,3.424,0a.814.814,0,0,0,.376-.088.719.719,0,0,0,.38-.677q0-1.046,0-2.091c0-2.125,0-4.251,0-6.376a.781.781,0,0,0-.788-.788c-2.256.012-4.513.005-6.77.005h-7.372a.842.842,0,0,0-.167.012.743.743,0,0,0-.587.762q0,1.007,0,2.013,0,1.707,0,3.414c0,1.013,0,2.027,0,3.04a.767.767,0,0,0,.783.781c1.082-.014,2.165,0,3.247,0Z" transform="translate(-4413.401 -2248.841)"/>
        <path id="Path_18078" data-name="Path 18078" d="M4450.129,2341.421c.254,0,.5,0,.752,0,.022,0,.055.056.063.09.114.55.225,1.1.336,1.651q.335,1.66.67,3.321a.746.746,0,0,0,.624.653,1.086,1.086,0,0,0,.389-.029q1.729-.345,3.458-.7l3.244-.656,3.129-.634,3.216-.65c.245-.05.487-.106.733-.147a.752.752,0,0,0,.59-.891q-.384-1.868-.758-3.737-.251-1.245-.5-2.491c-.083-.415-.168-.83-.251-1.246a.3.3,0,0,1,0-.059v-1.866c0-.012,0-.024,0-.052a1.607,1.607,0,0,1,.459.545,3.024,3.024,0,0,1,.225.814q.413,2.047.826,4.095.316,1.56.632,3.12c.058.286.125.572.165.861a1.511,1.511,0,0,1-1.147,1.669c-.444.1-.9.178-1.342.27-.687.141-1.374.288-2.062.428-.988.2-1.977.4-2.966.6l-3.11.63-3.042.614c-.5.1-.991.206-1.488.3a1.541,1.541,0,0,1-1.785-1.233c-.068-.361-.146-.721-.218-1.082q-.308-1.529-.614-3.058-.108-.536-.217-1.072A.529.529,0,0,1,4450.129,2341.421Z" transform="translate(-4448.145 -2329.384)"/>
        <path id="Path_18079" data-name="Path 18079" d="M4510.858,2506.427c.075.258.146.506.222.767l-9.57,1.954c-.071-.257-.142-.505-.215-.767Z" transform="translate(-4496.547 -2492.514)"/>
        <path id="Path_18080" data-name="Path 18080" d="M4488.28,2490.678l-.221-.766,2.949-.6c.073.254.145.5.22.765Z" transform="translate(-4484.026 -2476.323)"/>
        <path id="Path_18081" data-name="Path 18081" d="M4590.61,2288.928a1.938,1.938,0,0,1,2.013-1.934,1.572,1.572,0,0,1,.675.164.217.217,0,0,0,.226,0,1.759,1.759,0,0,1,1.543-.077,1.864,1.864,0,0,1,1.208,1.569,1.918,1.918,0,0,1-1.486,2.139,1.826,1.826,0,0,1-1.222-.133.142.142,0,0,0-.112,0,1.9,1.9,0,0,1-2.507-.622A1.989,1.989,0,0,1,4590.61,2288.928Zm2.873.719c.083.062.163.124.246.183a1.086,1.086,0,0,0,.8.2,1.152,1.152,0,0,0,.863-1.613,1.1,1.1,0,0,0-1.725-.416c-.074.06-.147.161-.224.165s-.157-.093-.234-.146l-.017-.011a1.141,1.141,0,0,0-1.424,1.775,1.062,1.062,0,0,0,1.35.136C4593.245,2289.841,4593.357,2289.743,4593.483,2289.648Z" transform="translate(-4581.039 -2284.88)"/>
      </g>
    </g>
  </g>
</svg>
