<svg xmlns="http://www.w3.org/2000/svg" width="24" height="24" viewBox="0 0 24 24">
  <g id="Group_9273" data-name="Group 9273" transform="translate(-39 -291.544)">
    <rect id="Rectangle_17473" data-name="Rectangle 17473" width="24" height="24" transform="translate(39 291.544)" fill="none"/>
    <g id="_2fyFHO" data-name="2fyFHO" transform="translate(42.096 294)">
      <g id="Group_9264" data-name="Group 9264" transform="translate(0)">
        <path id="Path_18060" data-name="Path 18060" d="M3966.294,633.713a5.338,5.338,0,1,1-5.258-5.4A5.312,5.312,0,0,1,3966.294,633.713Zm-5.338,4.168a4.214,4.214,0,1,0-4.216-4.211A4.219,4.219,0,0,0,3960.956,637.881Z" transform="translate(-3952.636 -628.316)"/>
        <path id="Path_18061" data-name="Path 18061" d="M3900.184,849.783c.224.018.413.047.6.047q6.538,0,13.075.005c.39,0,.77.027.7-.566h.984c.287,1-.164,1.688-1.16,1.691q-7.052.019-14.1,0c-.826,0-1.358-.474-1.249-1.288a14.541,14.541,0,0,1,.807-3.7,4.45,4.45,0,0,1,4.41-2.724,1.115,1.115,0,0,1,.432.052,6.839,6.839,0,0,0,4.961.148c.017.313.03.565.049.928h-5c-2.5,0-3.724.969-4.3,3.424-.118.5-.171,1.014-.238,1.524A2.363,2.363,0,0,0,3900.184,849.783Z" transform="translate(-3899.016 -831.882)"/>
        <path id="Path_18062" data-name="Path 18062" d="M4120.051,824.434c-1.171.237-1.193.291-.467,1.263l-.906.832c-1.031-.6-1.031-.6-1.225.528h-1.2c-.29-1.155-.329-1.171-1.292-.471l-.824-.912c.6-1,.592-1.034-.523-1.223-.015-.159-.04-.326-.045-.493-.008-.241,0-.483,0-.71,1.2-.287,1.238-.37.512-1.226.135-.153.283-.307.416-.473s.261-.356.374-.512c1.087.729,1.171.7,1.34-.436.206-.011.42-.027.636-.033.192-.006.385,0,.565,0,.324,1.221.324,1.221,1.291.513l.8.92c-.577,1-.577,1,.549,1.221Zm-1.693-.591a1.533,1.533,0,1,0-1.58,1.526A1.592,1.592,0,0,0,4118.357,823.843Z" transform="translate(-4102.243 -810.401)"/>
      </g>
    </g>
  </g>
</svg>
