<svg xmlns="http://www.w3.org/2000/svg" width="24" height="24" viewBox="0 0 24 24">
  <g id="Group_9275" data-name="Group 9275" transform="translate(-39 -531.319)">
    <rect id="Rectangle_17475" data-name="Rectangle 17475" width="24" height="24" transform="translate(39 531.319)" fill="none"/>
    <g id="HC57lG.tif" transform="translate(42.72 535)">
      <g id="Group_9267" data-name="Group 9267" transform="translate(0)">
        <path id="Path_18066" data-name="Path 18066" d="M3951,2910.91c-.449-.073-.9-.127-1.348-.223a8.06,8.06,0,0,1-3.384-1.6l-.475-.382a1.747,1.747,0,0,1-.052.573,2.062,2.062,0,0,1-.392.429c-.141-.135-.39-.26-.4-.407a9.189,9.189,0,0,1-.009-1.667c.014-.146.282-.357.454-.38a11.4,11.4,0,0,1,1.372-.047c.294,0,.6.025.6.407s-.277.434-.582.431c-.1,0-.193.009-.4.02.227.191.373.335.539.452a7.453,7.453,0,0,0,11.9-5.906,10.957,10.957,0,0,0-.39-2.41c-.064-.31-.1-.574.244-.681s.468.148.555.414a8.3,8.3,0,0,1-6.238,10.781c-.4.075-.8.13-1.2.194Z" transform="translate(-3943.097 -2894.271)"/>
        <path id="Path_18067" data-name="Path 18067" d="M4009.211,2881.537c0-.3-.008-.6,0-.886a2.162,2.162,0,0,1,2.149-2.169,2.128,2.128,0,0,1,2.151,2.153c.011.292,0,.584,0,.851.066.041.091.07.118.072.88.05.88.049.88.95,0,.951-.01,1.9,0,2.851.006.421-.183.6-.589.6q-2.556,0-5.112,0c-.438,0-.612-.193-.6-.631.017-.983.005-1.966.005-2.949,0-.74.031-.772.766-.807C4009.043,2881.566,4009.1,2881.552,4009.211,2881.537Zm-.146.918v2.628h4.594v-2.628Zm3.6-.9c0-.791.17-1.582-.651-2.054a1.229,1.229,0,0,0-1.426.079c-.7.514-.529,1.251-.517,1.976Z" transform="translate(-4003.072 -2874.366)"/>
        <path id="Path_18068" data-name="Path 18068" d="M3924.7,2802.788a1.646,1.646,0,0,1,.046-.577.7.7,0,0,1,.412-.369c.114-.017.369.2.38.333a10.282,10.282,0,0,1,.012,1.717c-.012.144-.289.357-.462.377a14.169,14.169,0,0,1-1.47.03c-.28,0-.492-.09-.5-.407s.211-.409.489-.413c.126,0,.251-.011.513-.024-.218-.185-.339-.3-.474-.4a7.248,7.248,0,0,0-7.688-.866,7.041,7.041,0,0,0-4.282,6.43,11.856,11.856,0,0,0,.377,2.655c.056.3.122.576-.228.687s-.483-.156-.584-.439a8.267,8.267,0,0,1,13.184-8.927C3924.5,2802.652,3924.581,2802.7,3924.7,2802.788Z" transform="translate(-3910.808 -2800.646)"/>
      </g>
    </g>
  </g>
</svg>
