<svg xmlns="http://www.w3.org/2000/svg" width="24" height="24" viewBox="0 0 24 24">
  <g id="Group_9274" data-name="Group 9274" transform="translate(-39 -413.026)">
    <rect id="Rectangle_17474" data-name="Rectangle 17474" width="24" height="24" transform="translate(39 413.026)" fill="none"/>
    <g id="uootTh.tif" transform="translate(41.988 416)">
      <g id="Group_9265" data-name="Group 9265" transform="translate(0)">
        <path id="Path_18063" data-name="Path 18063" d="M3906.926,1712.7a3.086,3.086,0,0,1,.384.165,1.107,1.107,0,0,1,.531.812c.06.359.115.718.185,1.075a.27.27,0,0,0,.139.167q.513.227,1.038.428a.27.27,0,0,0,.214-.019c.3-.2.595-.418.892-.628a1.109,1.109,0,0,1,1.516.113q.543.527,1.069,1.073a1.11,1.11,0,0,1,.106,1.506c-.206.293-.413.585-.626.872a.222.222,0,0,0-.024.255c.139.316.273.635.4.958a.235.235,0,0,0,.214.168c.393.063.788.123,1.176.208a1.059,1.059,0,0,1,.848,1.033c.011.552.013,1.1,0,1.656a1.107,1.107,0,0,1-.953,1.081c-.363.064-.729.115-1.091.185a.29.29,0,0,0-.185.141c-.149.331-.287.667-.417,1.006a.249.249,0,0,0,.022.2c.2.3.419.594.629.892a1.124,1.124,0,0,1-.129,1.546q-.506.515-1.02,1.022a1.119,1.119,0,0,1-1.557.119c-.287-.2-.575-.406-.857-.616a.206.206,0,0,0-.238-.021c-.322.141-.646.276-.974.4a.224.224,0,0,0-.157.2c-.066.4-.123.8-.213,1.194a1.069,1.069,0,0,1-1.036.848q-.835.018-1.671,0a1.1,1.1,0,0,1-1.058-.956q-.095-.537-.177-1.077a.234.234,0,0,0-.166-.215c-.307-.114-.611-.238-.91-.371a.229.229,0,0,0-.268.021c-.291.218-.588.428-.887.635a1.1,1.1,0,0,1-1.5-.114q-.545-.525-1.07-1.071a1.109,1.109,0,0,1-.114-1.505c.205-.293.413-.585.627-.871a.217.217,0,0,0,.02-.254c-.139-.309-.275-.621-.4-.939a.247.247,0,0,0-.22-.182c-.382-.06-.765-.116-1.143-.2a1.084,1.084,0,0,1-.871-.823.57.57,0,0,0-.035-.079v-1.974a.529.529,0,0,0,.036-.077,1.11,1.11,0,0,1,.94-.837c.357-.065.717-.115,1.073-.185a.269.269,0,0,0,.167-.138q.219-.5.411-1.007a.252.252,0,0,0-.02-.2c-.209-.311-.434-.612-.646-.921a1.117,1.117,0,0,1,.136-1.529q.5-.507,1.008-1.007a1.125,1.125,0,0,1,1.6-.122c.272.195.544.388.81.589a.227.227,0,0,0,.268.03q.469-.217.952-.4a.221.221,0,0,0,.162-.2c.057-.359.1-.72.187-1.074a1.923,1.923,0,0,1,.241-.575,1.179,1.179,0,0,1,.668-.42Zm-4.283,14.238c.128.05.236.091.343.135.454.187.9.4,1.364.554a.65.65,0,0,1,.5.563c.066.447.148.891.215,1.338.022.146.074.213.236.209q.677-.015,1.354,0c.157,0,.217-.056.239-.205.067-.446.151-.89.218-1.337a.651.651,0,0,1,.494-.567,13.353,13.353,0,0,0,1.39-.578.649.649,0,0,1,.749.051c.366.275.746.53,1.115.8a.184.184,0,0,0,.286-.018q.484-.5.982-.984a.186.186,0,0,0,.021-.288c-.27-.37-.523-.751-.8-1.117a.662.662,0,0,1-.047-.766,14.149,14.149,0,0,0,.577-1.393.625.625,0,0,1,.524-.473c.451-.071.9-.154,1.353-.219.163-.024.233-.082.229-.257q-.016-.66,0-1.321c0-.175-.064-.234-.227-.258-.452-.067-.9-.151-1.352-.222a.619.619,0,0,1-.519-.456c-.179-.488-.377-.971-.6-1.442a.626.626,0,0,1,.042-.7c.277-.378.542-.766.819-1.145a.187.187,0,0,0-.024-.288c-.319-.311-.638-.624-.944-.948a.221.221,0,0,0-.354-.032c-.359.273-.733.527-1.095.8a.583.583,0,0,1-.7.047,6.1,6.1,0,0,0-1.508-.617.544.544,0,0,1-.428-.478c-.075-.475-.163-.948-.237-1.423a.176.176,0,0,0-.208-.176c-.451.005-.9.01-1.354,0-.171,0-.24.053-.264.218-.067.447-.151.891-.218,1.337a.612.612,0,0,1-.481.558,5.508,5.508,0,0,0-1.42.6.582.582,0,0,1-.7-.038c-.373-.275-.755-.537-1.128-.811-.113-.083-.191-.094-.3.017-.317.33-.643.653-.971.971a.193.193,0,0,0-.027.3c.275.373.532.76.809,1.13a.651.651,0,0,1,.047.75,12.774,12.774,0,0,0-.56,1.381.658.658,0,0,1-.577.505c-.447.064-.89.147-1.336.217-.13.021-.191.075-.188.219.008.458.009.916,0,1.374,0,.161.062.213.209.236.463.072.923.16,1.386.232a.623.623,0,0,1,.516.46c.182.481.377.958.6,1.422a.646.646,0,0,1-.051.736c-.272.368-.528.747-.8,1.116a.185.185,0,0,0,.017.287q.5.486.983.985a.184.184,0,0,0,.286.02q.575-.421,1.161-.825A2.509,2.509,0,0,1,3902.642,1726.935Z" transform="translate(-3896.965 -1712.697)"/>
        <path id="Path_18064" data-name="Path 18064" d="M4001.86,1813.575a3.89,3.89,0,1,1-3.876-3.9A3.893,3.893,0,0,1,4001.86,1813.575Zm-1.015.02a2.875,2.875,0,1,0-2.913,2.847A2.886,2.886,0,0,0,4000.845,1813.594Z" transform="translate(-3988.956 -1804.546)"/>
      </g>
    </g>
  </g>
</svg>
