<svg xmlns="http://www.w3.org/2000/svg" width="24" height="24" viewBox="0 0 24 24">
  <g id="Group_9274" data-name="Group 9274" transform="translate(-39 -413.026)">
    <rect id="Rectangle_17474" data-name="Rectangle 17474" width="24" height="24" transform="translate(39 413.026)" fill="none"/>
    <g id="ky3lYK" transform="translate(556.746 458.704)">
      <g id="Group_9647" data-name="Group 9647" transform="translate(-515.165 -44.7)">
        <path id="Path_18095" data-name="Path 18095" d="M-515.165,76.157a.39.39,0,0,0,.018-.05.621.621,0,0,1,.647-.525c.453,0,.907,0,1.36,0h.825c-.018.42-.035.828-.053,1.254h-2.087a.632.632,0,0,1-.7-.543.146.146,0,0,0-.014-.029Z" transform="translate(515.165 -66.795)"/>
        <path id="Path_18096" data-name="Path 18096" d="M-394.015-44.7c.008.006.015.016.024.019a.624.624,0,0,1,.475.655c0,.528,0,1.055,0,1.583,0,.159,0,.319,0,.477h-1.25c0-.028-.005-.066-.005-.1,0-.606.011-1.213,0-1.818a.723.723,0,0,1,.5-.813Z" transform="translate(403.571 44.7)"/>
        <path id="Path_18097" data-name="Path 18097" d="M-404.333,248.9a2.6,2.6,0,0,1-.425-.135,1.251,1.251,0,0,1-.333-.258.791.791,0,0,1-.1-.254h2.758a.385.385,0,0,1-.129.33,1.143,1.143,0,0,1-.607.294c-.031.006-.061.015-.092.023Z" transform="translate(413.224 -226.853)"/>
        <path id="Path_18098" data-name="Path 18098" d="M-459.055,23.1h-1.564a1.413,1.413,0,0,1-1.45-1.426c-.012-.431-.058-.861-.089-1.291a.954.954,0,0,0-.277-.567c-.29-.325-.59-.641-.881-.965a5.657,5.657,0,0,1-1.462-3.409,5.871,5.871,0,0,1,.52-3.077,5.754,5.754,0,0,1,3.011-2.878,5.622,5.622,0,0,1,2.292-.434,5.2,5.2,0,0,1,1.908.347,5.9,5.9,0,0,1,2.226,1.518,5.623,5.623,0,0,1,1.476,3.249,6.056,6.056,0,0,1-.548,3.358,6.591,6.591,0,0,1-1.183,1.633c-.167.176-.326.36-.5.531a1.393,1.393,0,0,0-.419.966c-.015.342-.045.684-.052,1.026a1.407,1.407,0,0,1-1.445,1.419Zm-.012-.972c.525,0,1.05,0,1.574,0a.432.432,0,0,0,.47-.464c.015-.371.042-.741.061-1.111a2.293,2.293,0,0,1,.666-1.513c.252-.263.5-.528.743-.8a4.853,4.853,0,0,0,1.045-4.836,4.7,4.7,0,0,0-5.352-3.3A4.623,4.623,0,0,0-463.38,12.8a5.02,5.02,0,0,0-.251,3.544,4.773,4.773,0,0,0,1.2,2.047c.272.292.545.585.8.889a1.724,1.724,0,0,1,.432.984c.04.465.078.931.1,1.4a.438.438,0,0,0,.482.475Z" transform="translate(468.483 -5.129)"/>
        <path id="Path_18099" data-name="Path 18099" d="M-413.958,228.427c-.521,0-1.042,0-1.563,0a.6.6,0,0,1-.623-.48.6.6,0,0,1,.6-.722c.432,0,.864,0,1.3,0h1.841a.6.6,0,0,1,.635.529.591.591,0,0,1-.521.665c-.245.016-.492.009-.738.01C-413.337,228.428-413.647,228.428-413.958,228.427Z" transform="translate(423.388 -207.359)"/>
        <path id="Path_18100" data-name="Path 18100" d="M-413.972,206.59c.539,0,1.078,0,1.618,0a.584.584,0,0,1,.545.395.6.6,0,0,1-.171.652.636.636,0,0,1-.436.148q-1.136,0-2.271,0c-.3,0-.593,0-.889,0a.593.593,0,0,1-.589-.542.593.593,0,0,1,.469-.638.894.894,0,0,1,.191-.013h1.532Z" transform="translate(423.399 -188.233)"/>
        <path id="Path_18101" data-name="Path 18101" d="M-478.028-6.835c-.226-.23-.455-.464-.686-.7-.291-.294-.586-.584-.876-.879a.6.6,0,0,1-.15-.651.594.594,0,0,1,.522-.415.574.574,0,0,1,.492.16c.517.511,1.03,1.027,1.544,1.542a.115.115,0,0,1,.018.027Z" transform="translate(482.363 12.055)"/>
        <path id="Path_18102" data-name="Path 18102" d="M-296.041,76.828l-.053-1.239c.027,0,.057-.008.088-.008.7,0,1.407,0,2.11,0a.619.619,0,0,1,.633.538.62.62,0,0,1-.461.691.773.773,0,0,1-.191.023q-1.023,0-2.046,0C-295.987,76.835-296.015,76.83-296.041,76.828Z" transform="translate(312.096 -66.794)"/>
        <path id="Path_18103" data-name="Path 18103" d="M-327.36-6.813l-.856-.9a.557.557,0,0,1,.043-.053q.737-.739,1.475-1.478a.632.632,0,0,1,.918-.015.631.631,0,0,1-.03.9l-1.483,1.485C-327.315-6.85-327.34-6.831-327.36-6.813Z" transform="translate(341.872 12.024)"/>
        <path id="Path_18104" data-name="Path 18104" d="M-322.681,147.215l.78-.979c.019.015.044.033.065.054q.58.579,1.159,1.159a.634.634,0,0,1,.022.911.631.631,0,0,1-.91-.023l-1.061-1.06C-322.646,147.257-322.664,147.235-322.681,147.215Z" transform="translate(336.741 -132.289)"/>
        <path id="Path_18105" data-name="Path 18105" d="M-478.385,146.243l.789.991c-.17.164-.343.329-.513.5-.214.211-.423.425-.637.635a.629.629,0,0,1-.872.015.61.61,0,0,1-.056-.852C-479.255,147.09-478.816,146.671-478.385,146.243Z" transform="translate(482.403 -132.295)"/>
      </g>
    </g>
    <path id="Path_18106" data-name="Path 18106" d="M.75-4.74h.9V0H.75ZM.54-6.44a.635.635,0,0,1,.195-.465A.635.635,0,0,1,1.2-7.1a.635.635,0,0,1,.465.195.635.635,0,0,1,.2.465.635.635,0,0,1-.2.465.635.635,0,0,1-.465.2.635.635,0,0,1-.465-.2A.635.635,0,0,1,.54-6.44Z" transform="translate(49.8 428.026)"/>
  </g>
</svg>
