<svg xmlns="http://www.w3.org/2000/svg" width="20.615" height="27.968" viewBox="0 0 20.615 27.968">
  <g id="Group_8892" data-name="Group 8892" transform="translate(801.887 24.002)">
    <path id="Path_17016" data-name="Path 17016" d="M-775.666-11.64q0,3.236,0,6.471a2.9,2.9,0,0,1-3.1,3.118c-4.03,0-8.061-.03-12.091.014a3.032,3.032,0,0,1-3.085-3.077c.054-2.655.013-5.311.013-7.967,0-1.678,0-3.356,0-5.033a4.6,4.6,0,0,1,2.443-4.221A13.1,13.1,0,0,1-784.775-24a13.045,13.045,0,0,1,6.7,1.689,4.586,4.586,0,0,1,2.407,4.2C-775.658-15.954-775.665-13.8-775.666-11.64Zm-9.047,2.8q3.115,0,6.23,0a1.37,1.37,0,0,0,1.529-1.524q.009-3.681,0-7.363a1.357,1.357,0,0,0-1.489-1.48q-6.271,0-12.542,0a1.362,1.362,0,0,0-1.485,1.483q0,3.682,0,7.363a1.368,1.368,0,0,0,1.528,1.522Q-787.828-8.837-784.713-8.84Zm.012-11.295c.9,0,1.806.02,2.708-.014a.848.848,0,0,0,.628-.312.731.731,0,0,0-.706-1.146q-2.626-.008-5.252,0c-.579,0-.772.192-.771.736s.189.737.765.739C-786.453-20.132-785.577-20.134-784.7-20.135Zm5.385,15.6a1.375,1.375,0,0,0,1.4-1.334,1.4,1.4,0,0,0-1.361-1.419,1.392,1.392,0,0,0-1.393,1.344A1.364,1.364,0,0,0-779.316-4.532Zm-10.962,0a1.377,1.377,0,0,0,1.36-1.37,1.4,1.4,0,0,0-1.395-1.385,1.392,1.392,0,0,0-1.358,1.379A1.372,1.372,0,0,0-790.278-4.531Z" transform="translate(-6.899)" fill="#f99026"/>
    <path id="Path_17017" data-name="Path 17017" d="M-786.326,150.461l-1.174-1.711a19.632,19.632,0,0,0,2.056-.018.9.9,0,0,1,.966.494c.986,1.465,2,2.908,3.01,4.359.052.076.1.157.2.322a7.728,7.728,0,0,0-1.25.011,1.826,1.826,0,0,1-2.211-1.164.655.655,0,0,0-.711-.384q-6.169.017-12.339,0a.608.608,0,0,0-.645.359,1.853,1.853,0,0,1-2.239,1.192,7.219,7.219,0,0,0-1.221-.011c.079-.143.119-.236.176-.317,1.059-1.529,2.115-3.06,3.19-4.579a.693.693,0,0,1,.477-.252c.753-.027,1.508-.012,2.361-.012l-1.16,1.713Z" transform="translate(0 -150)"/>
  </g>
</svg>
