<svg id="ic-wallet" xmlns="http://www.w3.org/2000/svg" width="24" height="24" viewBox="0 0 24 24">
  <rect id="Rectangle_2790" data-name="Rectangle 2790" width="24" height="24" fill="none"/>
  <g id="euF3rV.tif" transform="translate(-283.126 628.757)">
    <g id="Group_8771" data-name="Group 8771" transform="translate(284.069 -626.777)">
      <path id="Path_17000" data-name="Path 17000" d="M284.069-609.415v-14.771a3.2,3.2,0,0,1,1.213-1.923,10.887,10.887,0,0,1,1.378-.669h15.116a1.123,1.123,0,0,0,.157.068,2.729,2.729,0,0,1,2.175,2.814c0,.516.036,1.036-.01,1.548a.753.753,0,0,0,.509.886,1.525,1.525,0,0,1,.662.531c.341.533.613,1.109.913,1.668v9.847a10.009,10.009,0,0,1-.442,1.058,3.358,3.358,0,0,1-2.322,1.619H286.833a3.365,3.365,0,0,1-2.365-1.694A10.2,10.2,0,0,1,284.069-609.415Zm1.382-11.668v.456q0,5.247,0,10.494a1.855,1.855,0,0,0,2.018,2.012q3.628,0,7.255,0,4.081,0,8.162,0a1.748,1.748,0,0,0,1.833-1.393,13.853,13.853,0,0,0,.1-1.89c-1.05,0-2.014.017-2.977,0a2.617,2.617,0,0,1-2.571-2.693,2.631,2.631,0,0,1,2.614-2.48c.959-.014,1.919,0,2.912,0,0-.652,0-1.253,0-1.855a1.886,1.886,0,0,0-2.129-2.119H288.377A4.788,4.788,0,0,1,285.451-621.083Zm17.276-.857c0-.642,0-1.217,0-1.791,0-1.158-.5-1.663-1.646-1.663H290.806c-1.194,0-2.389-.005-3.583,0a1.7,1.7,0,0,0-1.684,1.173,1.739,1.739,0,0,0,1.738,2.278q7.555.007,15.11,0Zm2.048,9.146v-2.4c-1.013,0-2-.028-2.99.01a1.2,1.2,0,0,0-1.129,1.2,1.188,1.188,0,0,0,1.1,1.182C302.754-612.763,303.757-612.794,304.775-612.794Z" transform="translate(-284.069 626.777)"/>
      <path id="Path_17001" data-name="Path 17001" d="M329.961-598.42v1.253H316.31v-1.253Z" transform="translate(-313.683 600.73)"/>
      <path id="Path_17002" data-name="Path 17002" d="M485.386-486.088a.657.657,0,0,1-.658.631.659.659,0,0,1-.64-.688.661.661,0,0,1,.678-.611A.658.658,0,0,1,485.386-486.088Z" transform="translate(-466.744 498.902)"/>
    </g>
  </g>
</svg>
