<svg id="ic-notification" xmlns="http://www.w3.org/2000/svg" width="24" height="24" viewBox="0 0 24 24">
  <rect id="Rectangle_2667" data-name="Rectangle 2667" width="24" height="24" fill="none"/>
  <g id="ic_notification" transform="translate(1.275 0.998)">
    <g id="bell_1_" data-name="bell (1)" transform="translate(-53.434 0)">
      <path d="M 62.15780639648438 22.10416221618652 C 60.32902145385742 22.10416221618652 58.8138427734375 20.64331817626953 58.73502731323242 18.82769203186035 L 54.09719848632812 18.82769203186035 C 53.73703765869141 18.82769203186035 53.42345809936523 18.5825023651123 53.35158920288086 18.24468231201172 C 53.27806854248047 17.89909553527832 53.43619537353516 17.57015037536621 53.74541854858398 17.42355346679688 C 53.81911087036133 17.37416458129883 54.2791862487793 17.03759765625 54.74505996704102 16.05360221862793 C 55.63411712646484 14.17584323883057 55.82073974609375 11.52284240722656 55.82073974609375 9.627902984619141 C 55.82073974609375 7.163012981414795 57.26425170898438 4.912609100341797 59.50392913818359 3.876326560974121 L 59.50392913818359 2.45123291015625 C 59.50392913818359 1.044482827186584 60.64885711669922 -0.09998717159032822 62.05617904663086 -0.09998717159032822 L 62.25940704345703 -0.09998717159032822 C 63.66672897338867 -0.09998717159032822 64.81166076660156 1.044482827186584 64.81166076660156 2.45123291015625 L 64.81166076660156 3.876410961151123 C 67.04143524169922 4.908390522003174 68.48482513427734 7.148908615112305 68.49436950683594 9.602752685546875 C 68.49465942382812 9.608892440795898 68.49485015869141 9.618342399597168 68.49485015869141 9.627902984619141 C 68.49485015869141 11.52287292480469 68.68146514892578 14.17590236663818 69.57052612304688 16.05360221862793 C 70.03656768798828 17.03791809082031 70.49665069580078 17.37430572509766 70.57019805908203 17.42357063293457 C 70.87933349609375 17.57011222839355 71.03746032714844 17.8990478515625 70.96403503417969 18.24465370178223 C 70.89216613769531 18.5825023651123 70.57859039306641 18.82769203186035 70.21842193603516 18.82769203186035 L 65.58061218261719 18.82769203186035 C 65.50178527832031 20.64331817626953 63.98659515380859 22.10416221618652 62.15780639648438 22.10416221618652 Z M 60.22927856445312 18.82773208618164 C 60.30640029907227 19.82100868225098 61.15077590942383 20.61275291442871 62.15780639648438 20.61275291442871 C 63.16484832763672 20.61275291442871 64.00921630859375 19.82100105285645 64.0863037109375 18.82773208618164 L 60.22927856445312 18.82773208618164 Z M 55.74940872192383 17.33623313903809 L 64.75898742675781 17.33623313903809 L 68.56622314453125 17.33623313903809 C 68.48063659667969 17.19419860839844 68.39765167236328 17.04424476623535 68.31851959228516 16.88855361938477 C 67.447998046875 15.17556285858154 67.00534057617188 12.74147319793701 67.00286102294922 9.653892517089844 C 67.00260162353516 9.648262977600098 67.00244140625 9.639172554016113 67.00244140625 9.630043029785156 C 67.00244140625 6.958552837371826 64.82904815673828 4.785132884979248 62.15759658813477 4.785132884979248 C 59.48613739013672 4.785132884979248 57.31274795532227 6.957592964172363 57.31274795532227 9.627902984619141 C 57.31274795532227 12.72777271270752 56.87009811401367 15.17060279846191 55.99709701538086 16.88854217529297 C 55.9178352355957 17.04448699951172 55.83485794067383 17.19443511962891 55.74940872192383 17.33623313903809 Z M 62.15763854980469 3.293722867965698 C 62.54784393310547 3.293722867965698 62.93819046020508 3.329647302627563 63.31972885131836 3.400584936141968 L 63.31972885131836 2.45123291015625 C 63.31972885131836 1.866852879524231 62.84408950805664 1.391422867774963 62.25944900512695 1.391422867774963 L 62.05621719360352 1.391422867774963 C 61.47158813476562 1.391422867774963 60.99594879150391 1.866852879524231 60.99594879150391 2.45123291015625 L 60.99597549438477 3.400473833084106 C 61.37738037109375 3.329608917236328 61.76755905151367 3.293722867965698 62.15763854980469 3.293722867965698 Z" stroke="none"/>
      <path d="M 62.15780639648438 22.00416374206543 C 63.97583770751953 22.00416374206543 65.45703125 20.53877258300781 65.48347473144531 18.72769355773926 L 70.21842193603516 18.72769355773926 C 70.52340698242188 18.72769355773926 70.80278015136719 18.52209281921387 70.86621856689453 18.22387313842773 C 70.928955078125 17.92857360839844 70.79434204101562 17.63715362548828 70.52122497558594 17.51106262207031 C 70.4564208984375 17.46907234191895 69.96859741210938 17.12804222106934 69.48014831542969 16.09639358520508 C 68.5831298828125 14.20188236236572 68.39485168457031 11.53310298919678 68.39485168457031 9.627902984619141 C 68.39485168457031 9.619603157043457 68.39467620849609 9.611392974853516 68.39437103271484 9.603142738342285 C 68.38457489013672 7.085172653198242 66.87372589111328 4.9145827293396 64.71165466308594 3.940682888031006 L 64.71165466308594 2.45123291015625 C 64.71165466308594 1.099612832069397 63.61157989501953 1.282470748265041e-05 62.25940704345703 1.282470748265041e-05 L 62.05617904663086 1.282470748265041e-05 C 60.70399856567383 1.282470748265041e-05 59.60392761230469 1.099612832069397 59.60392761230469 2.45123291015625 L 59.60392761230469 3.940602779388428 C 57.43462753295898 4.917633056640625 55.92073822021484 7.099312782287598 55.92073822021484 9.627902984619141 C 55.92073822021484 11.53310298919678 55.73244857788086 14.20184326171875 54.8354377746582 16.09639358520508 C 54.34702682495117 17.12800216674805 53.85923004150391 17.46902275085449 53.79435729980469 17.51106262207031 C 53.52123641967773 17.63719367980957 53.38657760620117 17.92857360839844 53.44939804077148 18.22387313842773 C 53.51284790039062 18.52209281921387 53.79217910766602 18.72769355773926 54.09719848632812 18.72769355773926 L 58.83215713500977 18.72769355773926 C 58.85859680175781 20.53877258300781 60.33979797363281 22.00416374206543 62.15780639648438 22.00416374206543 M 60.12411880493164 18.72773361206055 L 64.19145965576172 18.72773361206055 C 64.16526794433594 19.82665252685547 63.2634391784668 20.71275329589844 62.15780639648438 20.71275329589844 C 61.05218887329102 20.71275329589844 60.15034866333008 19.82669258117676 60.12411880493164 18.72773361206055 M 68.7462158203125 17.43623352050781 L 64.75898742675781 17.43623352050781 C 64.75885009765625 17.43623352050781 55.56939697265625 17.43623352050781 55.56939697265625 17.43623352050781 C 55.68115997314453 17.26244354248047 55.79489898681641 17.06564331054688 55.9079475402832 16.84324264526367 C 56.77372741699219 15.13951301574707 57.21274948120117 12.71192264556885 57.21274948120117 9.627902984619141 C 57.21274948120117 6.902432918548584 59.4310188293457 4.68513298034668 62.15759658813477 4.68513298034668 C 64.88417816162109 4.68513298034668 67.10243988037109 6.902432918548584 67.10243988037109 9.630043029785156 C 67.10243988037109 9.637992858886719 67.10257720947266 9.645902633666992 67.10285949707031 9.653812408447266 C 67.10533142089844 12.7254524230957 67.54428863525391 15.14432239532471 68.40766906738281 16.84324264526367 C 68.52072906494141 17.06569290161133 68.63449859619141 17.26243209838867 68.7462158203125 17.43623352050781 M 62.15763854980469 3.393722772598267 C 61.72551727294922 3.393722772598267 61.30355834960938 3.437942743301392 60.89597702026367 3.521962881088257 L 60.89594650268555 2.45123291015625 C 60.89594650268555 1.811692833900452 61.41642761230469 1.291422843933105 62.05621719360352 1.291422843933105 L 62.25944900512695 1.291422843933105 C 62.89923858642578 1.291422843933105 63.41972732543945 1.811692833900452 63.41972732543945 2.45123291015625 L 63.41972732543945 3.522092819213867 C 63.01197814941406 3.437982797622681 62.58988952636719 3.393722772598267 62.15763854980469 3.393722772598267 M 62.15780639648438 22.20416259765625 C 60.30792236328125 22.20416259765625 58.76980590820312 20.75164222717285 58.64058303833008 18.92769241333008 L 54.09719848632812 18.92769241333008 C 53.69012832641602 18.92769241333008 53.33541870117188 18.64920234680176 53.25377655029297 18.26549339294434 C 53.17226791381836 17.88236236572266 53.35354995727539 17.50294876098633 53.6954231262207 17.33664512634277 C 53.77862167358398 17.27953910827637 54.20936965942383 16.95138359069824 54.65467834472656 16.01081275939941 C 55.53578948974609 14.1498327255249 55.72073745727539 11.51258277893066 55.72073745727539 9.627902984619141 C 55.72073745727539 7.14535665512085 57.16197204589844 4.877135276794434 59.40392684936523 3.812762975692749 L 59.40392684936523 2.45123291015625 C 59.40392684936523 0.9893428087234497 60.59371948242188 -0.1999871730804443 62.05617904663086 -0.1999871730804443 L 62.25940704345703 -0.1999871730804443 C 63.72186660766602 -0.1999871730804443 64.91165924072266 0.9893428087234497 64.91165924072266 2.45123291015625 L 64.91165924072266 3.81285834312439 C 67.14259338378906 4.872413158416748 68.58350372314453 7.129203796386719 68.59435272216797 9.599204063415527 C 68.59467315673828 9.608755111694336 68.5948486328125 9.618281364440918 68.5948486328125 9.627902984619141 C 68.5948486328125 11.51261329650879 68.77980041503906 14.14989280700684 69.66091156005859 16.01080322265625 C 70.10627746582031 16.95145606994629 70.53690338134766 17.27951431274414 70.62012481689453 17.33662223815918 C 70.96193695068359 17.50286102294922 71.14325714111328 17.88226318359375 71.06185150146484 18.26543235778809 C 70.98021697998047 18.64919281005859 70.62551116943359 18.92769241333008 70.21842193603516 18.92769241333008 L 65.67505645751953 18.92769241333008 C 65.54582214355469 20.75164222717285 64.00769805908203 22.20416259765625 62.15780639648438 22.20416259765625 Z M 60.34059524536133 18.92773246765137 C 60.46381759643555 19.8185863494873 61.23948669433594 20.51275253295898 62.15780639648438 20.51275253295898 C 63.07613754272461 20.51275253295898 63.85179901123047 19.8185920715332 63.97499084472656 18.92773246765137 L 60.34059524536133 18.92773246765137 Z M 55.92375564575195 17.23623275756836 L 68.39187622070312 17.23623275756836 C 68.33625030517578 17.13833427429199 68.28196716308594 17.03733062744141 68.22937774658203 16.93386268615723 C 67.35198211669922 15.20735549926758 66.90568542480469 12.75896453857422 66.90286254882812 9.657129287719727 C 66.90258026123047 9.648115158081055 66.90243530273438 9.639101982116699 66.90243530273438 9.630043029785156 C 66.90243530273438 7.013692855834961 64.77391052246094 4.885132789611816 62.15759658813477 4.885132789611816 C 59.54127883911133 4.885132789611816 57.41274642944336 7.012732982635498 57.41274642944336 9.627902984619141 C 57.41274642944336 12.74366283416748 56.96644973754883 15.20174312591553 56.08624649047852 16.93385314941406 C 56.03359985351562 17.03742790222168 55.97931289672852 17.13843536376953 55.92375564575195 17.23623275756836 Z M 62.15763854980469 3.193722724914551 C 62.51375579833984 3.193722724914551 62.86994934082031 3.223179340362549 63.2197265625 3.281429290771484 L 63.2197265625 2.45123291015625 C 63.2197265625 1.921992778778076 62.78894805908203 1.491422772407532 62.25944900512695 1.491422772407532 L 62.05621719360352 1.491422772407532 C 61.52672958374023 1.491422772407532 61.095947265625 1.921992778778076 61.095947265625 2.45123291015625 L 61.09597015380859 3.281331300735474 C 61.44560241699219 3.223145484924316 61.80166625976562 3.193722724914551 62.15763854980469 3.193722724914551 Z" stroke="none" fill="#000"/>
    </g>
  </g>
</svg>
