<svg xmlns="http://www.w3.org/2000/svg" width="15.126" height="17.287" viewBox="0 0 15.126 17.287">
  <path id="Icon_map-wheelchair" data-name="Icon map-wheelchair" d="M7.484,3.6A1.441,1.441,0,1,0,6.043,2.161,1.442,1.442,0,0,0,7.484,3.6ZM8.5,16.809a4.477,4.477,0,0,1-4.443-4.515A4.529,4.529,0,0,1,5.615,8.877L5.536,7.464A5.715,5.715,0,0,0,8.5,18.007a5.9,5.9,0,0,0,5.183-3.6l-.856-1.178A4.45,4.45,0,0,1,8.5,16.809Zm8.785-2.764h-.72l-2.881-3.962C13.528,9.809,12.964,9,12.244,9H9V7.563h2.881c.373,0,.776-.159.776-.542s-.392-.538-.776-.538H9V5.042c-.053-.8-.72-1.08-1.437-1.064s-1.084.344-1.084,1.064v5.042c.068.809.651,1.08,1.441,1.08h4.322l2.521,3.241c.162.269.72,1.08.72,1.08h1.8a.72.72,0,0,0,0-1.441Z" transform="translate(-2.88 -0.72)"/>
</svg>
